<svg id="Layer_1" data-name="Layer 1" xmlns="http://www.w3.org/2000/svg" viewBox="0 0 1120 224.74"><defs><style>.cls-1{fill:#f58220;}</style></defs><path class="cls-1" d="M576.69,428s-26.6-30.34-76.83-30.34c-61.42,0-109.27,48.93-109.27,111.93,0,62.7,47.85,111.64,109.27,111.64,50.23,0,76.83-31.23,76.83-31.23s-17.43-24.19-25.91-32.89c-8-8.26-17.34-9.36-26.22-5.75-5.43,2.22-11.48,4.66-20.2,4.66-27.6,0-44-21.3-44-46.37,0-25.39,16.43-46.38,44-46.38,6.82,0,14.31,2.68,19.12,4.35,9.61,3.34,20.14,1.75,28.34-6.67,7-7.19,24.87-32.95,24.87-32.95" transform="translate(-174 -396.44)"/><path class="cls-1" d="M759.1,428s-26.61-30.34-76.83-30.34C620.84,397.61,573,446.54,573,509.54c0,62.7,47.85,111.64,109.28,111.64,50.22,0,76.83-31.23,76.83-31.23s-17.44-24.19-25.92-32.89c-8-8.26-17.34-9.36-26.21-5.75-5.44,2.22-11.5,4.66-20.22,4.66-27.58,0-44-21.3-44-46.37,0-25.39,16.44-46.38,44-46.38,6.83,0,14.33,2.68,19.13,4.35,9.61,3.34,20.13,1.75,28.33-6.67,7-7.19,24.89-32.95,24.89-32.95" transform="translate(-174 -396.44)"/><path class="cls-1" d="M1294,617.49V421.83c0-13.18-4-20.49-19.29-20.49h-49v66.08c0,6.39-7.56,10.47-13.4,4.69-16.12-15.94-44.86-43.32-74.79-66.42a26.31,26.31,0,0,0-24.75-4.19h-.59V600.4c0,10.67,3.62,16.18,16.81,16.18h51.18V551.67c0-6.06,7.79-10.52,14.08-3.95,16.7,17.45,48.16,49.73,73.84,66.37,10.63,6.87,25,3.42,25,3.42Z" transform="translate(-174 -396.44)"/><path class="cls-1" d="M401.15,616.59s3.93-9.05-2.56-20.75S288.73,397.61,288.73,397.61h-.86L178,595.84c-7.14,12.87-2.57,20.75-2.57,20.75h68.43s31.12-62,35.52-70.77,12.1-8.65,16.7,0,37.78,70.78,37.78,70.78Z" transform="translate(-174 -396.44)"/><path class="cls-1" d="M978.57,554.37c24.94,0,44-20.77,44-46.41s-19-46.4-44-46.4-44,20.78-44,46.4,19,46.41,44,46.41m0,65.12c-62.27,0-112.16-49.93-112.16-111.53S916.3,396.44,978.57,396.44,1090.72,446.38,1090.72,508s-49.89,111.53-112.15,111.53" transform="translate(-174 -396.44)"/><path class="cls-1" d="M845.07,417.38a16.28,16.28,0,0,0-16.23-16.24H793.3a16.29,16.29,0,0,0-16.25,16.24V600.14a16.29,16.29,0,0,0,16.25,16.24h35.54a16.28,16.28,0,0,0,16.23-16.24Z" transform="translate(-174 -396.44)"/></svg>
