<svg xmlns="http://www.w3.org/2000/svg" viewBox="0 0 90 186"><defs><style>.a{fill:#f7ceab;opacity:0.3;}</style></defs><g transform="translate(-60 -106)"><circle class="a" cx="3" cy="3" r="3" transform="translate(60 106)"/><circle class="a" cx="3" cy="3" r="3" transform="translate(72 106)"/><circle class="a" cx="3" cy="3" r="3" transform="translate(84 106)"/><circle class="a" cx="3" cy="3" r="3" transform="translate(96 106)"/><circle class="a" cx="3" cy="3" r="3" transform="translate(108 106)"/><circle class="a" cx="3" cy="3" r="3" transform="translate(120 106)"/><circle class="a" cx="3" cy="3" r="3" transform="translate(132 106)"/><circle class="a" cx="3" cy="3" r="3" transform="translate(144 106)"/><circle class="a" cx="3" cy="3" r="3" transform="translate(60 121)"/><circle class="a" cx="3" cy="3" r="3" transform="translate(72 121)"/><circle class="a" cx="3" cy="3" r="3" transform="translate(84 121)"/><circle class="a" cx="3" cy="3" r="3" transform="translate(96 121)"/><circle class="a" cx="3" cy="3" r="3" transform="translate(108 121)"/><circle class="a" cx="3" cy="3" r="3" transform="translate(120 121)"/><circle class="a" cx="3" cy="3" r="3" transform="translate(132 121)"/><circle class="a" cx="3" cy="3" r="3" transform="translate(144 121)"/><circle class="a" cx="3" cy="3" r="3" transform="translate(60 136)"/><circle class="a" cx="3" cy="3" r="3" transform="translate(72 136)"/><circle class="a" cx="3" cy="3" r="3" transform="translate(84 136)"/><circle class="a" cx="3" cy="3" r="3" transform="translate(96 136)"/><circle class="a" cx="3" cy="3" r="3" transform="translate(108 136)"/><circle class="a" cx="3" cy="3" r="3" transform="translate(120 136)"/><circle class="a" cx="3" cy="3" r="3" transform="translate(132 136)"/><circle class="a" cx="3" cy="3" r="3" transform="translate(144 136)"/><circle class="a" cx="3" cy="3" r="3" transform="translate(60 151)"/><circle class="a" cx="3" cy="3" r="3" transform="translate(72 151)"/><circle class="a" cx="3" cy="3" r="3" transform="translate(84 151)"/><circle class="a" cx="3" cy="3" r="3" transform="translate(96 151)"/><circle class="a" cx="3" cy="3" r="3" transform="translate(108 151)"/><circle class="a" cx="3" cy="3" r="3" transform="translate(120 151)"/><circle class="a" cx="3" cy="3" r="3" transform="translate(132 151)"/><circle class="a" cx="3" cy="3" r="3" transform="translate(144 151)"/><circle class="a" cx="3" cy="3" r="3" transform="translate(60 166)"/><circle class="a" cx="3" cy="3" r="3" transform="translate(72 166)"/><circle class="a" cx="3" cy="3" r="3" transform="translate(84 166)"/><circle class="a" cx="3" cy="3" r="3" transform="translate(96 166)"/><circle class="a" cx="3" cy="3" r="3" transform="translate(108 166)"/><circle class="a" cx="3" cy="3" r="3" transform="translate(120 166)"/><circle class="a" cx="3" cy="3" r="3" transform="translate(132 166)"/><circle class="a" cx="3" cy="3" r="3" transform="translate(144 166)"/><circle class="a" cx="3" cy="3" r="3" transform="translate(60 181)"/><circle class="a" cx="3" cy="3" r="3" transform="translate(72 181)"/><circle class="a" cx="3" cy="3" r="3" transform="translate(84 181)"/><circle class="a" cx="3" cy="3" r="3" transform="translate(96 181)"/><circle class="a" cx="3" cy="3" r="3" transform="translate(108 181)"/><circle class="a" cx="3" cy="3" r="3" transform="translate(120 181)"/><circle class="a" cx="3" cy="3" r="3" transform="translate(132 181)"/><circle class="a" cx="3" cy="3" r="3" transform="translate(144 181)"/><circle class="a" cx="3" cy="3" r="3" transform="translate(60 196)"/><circle class="a" cx="3" cy="3" r="3" transform="translate(72 196)"/><circle class="a" cx="3" cy="3" r="3" transform="translate(84 196)"/><circle class="a" cx="3" cy="3" r="3" transform="translate(96 196)"/><circle class="a" cx="3" cy="3" r="3" transform="translate(108 196)"/><circle class="a" cx="3" cy="3" r="3" transform="translate(120 196)"/><circle class="a" cx="3" cy="3" r="3" transform="translate(132 196)"/><circle class="a" cx="3" cy="3" r="3" transform="translate(144 196)"/><circle class="a" cx="3" cy="3" r="3" transform="translate(60 211)"/><circle class="a" cx="3" cy="3" r="3" transform="translate(72 211)"/><circle class="a" cx="3" cy="3" r="3" transform="translate(84 211)"/><circle class="a" cx="3" cy="3" r="3" transform="translate(96 211)"/><circle class="a" cx="3" cy="3" r="3" transform="translate(108 211)"/><circle class="a" cx="3" cy="3" r="3" transform="translate(120 211)"/><circle class="a" cx="3" cy="3" r="3" transform="translate(132 211)"/><circle class="a" cx="3" cy="3" r="3" transform="translate(144 211)"/><circle class="a" cx="3" cy="3" r="3" transform="translate(60 226)"/><circle class="a" cx="3" cy="3" r="3" transform="translate(72 226)"/><circle class="a" cx="3" cy="3" r="3" transform="translate(84 226)"/><circle class="a" cx="3" cy="3" r="3" transform="translate(96 226)"/><circle class="a" cx="3" cy="3" r="3" transform="translate(108 226)"/><circle class="a" cx="3" cy="3" r="3" transform="translate(120 226)"/><circle class="a" cx="3" cy="3" r="3" transform="translate(132 226)"/><circle class="a" cx="3" cy="3" r="3" transform="translate(144 226)"/><circle class="a" cx="3" cy="3" r="3" transform="translate(60 241)"/><circle class="a" cx="3" cy="3" r="3" transform="translate(72 241)"/><circle class="a" cx="3" cy="3" r="3" transform="translate(84 241)"/><circle class="a" cx="3" cy="3" r="3" transform="translate(96 241)"/><circle class="a" cx="3" cy="3" r="3" transform="translate(108 241)"/><circle class="a" cx="3" cy="3" r="3" transform="translate(120 241)"/><circle class="a" cx="3" cy="3" r="3" transform="translate(132 241)"/><circle class="a" cx="3" cy="3" r="3" transform="translate(144 241)"/><circle class="a" cx="3" cy="3" r="3" transform="translate(60 256)"/><circle class="a" cx="3" cy="3" r="3" transform="translate(72 256)"/><circle class="a" cx="3" cy="3" r="3" transform="translate(84 256)"/><circle class="a" cx="3" cy="3" r="3" transform="translate(96 256)"/><circle class="a" cx="3" cy="3" r="3" transform="translate(108 256)"/><circle class="a" cx="3" cy="3" r="3" transform="translate(120 256)"/><circle class="a" cx="3" cy="3" r="3" transform="translate(132 256)"/><circle class="a" cx="3" cy="3" r="3" transform="translate(144 256)"/><circle class="a" cx="3" cy="3" r="3" transform="translate(60 271)"/><circle class="a" cx="3" cy="3" r="3" transform="translate(72 271)"/><circle class="a" cx="3" cy="3" r="3" transform="translate(84 271)"/><circle class="a" cx="3" cy="3" r="3" transform="translate(96 271)"/><circle class="a" cx="3" cy="3" r="3" transform="translate(108 271)"/><circle class="a" cx="3" cy="3" r="3" transform="translate(120 271)"/><circle class="a" cx="3" cy="3" r="3" transform="translate(132 271)"/><circle class="a" cx="3" cy="3" r="3" transform="translate(144 271)"/><circle class="a" cx="3" cy="3" r="3" transform="translate(60 286)"/><circle class="a" cx="3" cy="3" r="3" transform="translate(72 286)"/><circle class="a" cx="3" cy="3" r="3" transform="translate(84 286)"/><circle class="a" cx="3" cy="3" r="3" transform="translate(96 286)"/><circle class="a" cx="3" cy="3" r="3" transform="translate(108 286)"/><circle class="a" cx="3" cy="3" r="3" transform="translate(120 286)"/><circle class="a" cx="3" cy="3" r="3" transform="translate(132 286)"/><circle class="a" cx="3" cy="3" r="3" transform="translate(144 286)"/></g></svg>